<svg version="1.1" xmlns="http://www.w3.org/2000/svg" viewBox="-2770.387018377165 -1082.3680297851563 6852.051114446501 2875.392053222656"><desc>Created with Snap</desc><defs></defs><g><g transform="matrix(25.1501,0,0,25.1501,-2588.9374,-900.9184)"><g><path d="M78.4,66.5c-5.5,4.8-9.9,15.2-9.9,15.2s-6.9-11.4-12.9-15.3c-9.5-6.1-13.6-6.2-13.6-6.2V65c0,0,7.8,1.2,11.7,4.6   c8.2,7.1,14.8,18.5,14.8,18.5S74.4,75,80.1,70.5C88.1,64.3,95,65,95,65v-4.8C95,60.1,85.1,60.7,78.4,66.5z" fill="#157c79" style=""></path><path d="M42,80c-6.4-3.6-17.8-4.3-17.8-4.3s8.7-10.1,10.5-17C37.5,47.9,36.2,44,36.2,44l-4.6,1.6c0,0,1.3,7.7-0.6,12.4   c-4.1,9.9-13,19.8-13,19.8s14.6,1.3,20.7,5.1c8.6,5.4,10.2,12,10.2,12l4.6-1.6C53.5,93.4,49.7,84.4,42,80z" fill="#157c79" style=""></path><path d="M35.3,36.8c11.3-0.9,14.6-3.4,14.6-3.4l-3-3.8c0,0-6.9,3.7-12.1,3.4c-10.9-0.6-23.3-5.6-23.3-5.6s3.5,14,1.8,20.9   C10.9,58.2,5,61.8,5,61.8l3,3.8c0,0,7.5-6.5,9.1-15.1c1.3-7.1-1.7-18-1.7-18S28,37.4,35.3,36.8z" fill="#157c79" style=""></path><path d="M37.4,17.8c7.3-1.1,16.7-7.4,16.7-7.4s-0.6,13.2,2.4,19.8c4.6,10.2,8,12.5,8,12.5l2.7-4c0,0-5.9-5.2-7.3-10.2   C56.9,18.2,57.7,5,57.7,5s-12.3,7.8-19.5,8.5c-10.2,1-15.6-3.3-15.6-3.3l-2.7,4.1C19.9,14.2,28.6,19.1,37.4,17.8z" fill="#157c79" style=""></path><path d="M65,60.5c0,0,3.1-7.2,7.4-10.1c9-6.1,21.9-9.7,21.9-9.7s-11.5-8.9-14.5-15.4c-4.2-9.1-1.9-15.6-1.9-15.6l-4.8-1.2   c0,0-1.9,9.6,2.2,17.4c3.4,6.4,12.5,13.2,12.5,13.2S75,42.9,69.6,47.8c-8.3,7.6-9.4,11.5-9.4,11.5L65,60.5z" fill="#157c79" style=""></path></g><desc>Created with Snap</desc><defs></defs></g><g><g transform="matrix(1.024,0,0,-1.024,0,0)"><path d="M682 0L573 0L422 215Q394 213 378 213L205 213L205 0L105 0L105 700L378 700Q514 700 592 635Q670 570 670 456Q670 375 630 318Q590 261 516 235L682 0ZM375 298Q470 298 520 339Q570 380 570 456Q570 532 520 572Q470 613 375 613L205 613L205 298L375 298ZM1011 535Q1121 535 1179 481Q1238 427 1238 320L1238 0L1147 0L1147 70Q1123 33 1078 13Q1034 -6 973 -6Q884 -6 830 37Q777 80 777 150Q777 220 828 262Q879 305 990 305L1142 305L1142 324Q1142 386 1106 419Q1070 452 1000 452Q953 452 908 436Q863 421 832 395L792 467Q833 500 890 517Q947 535 1011 535ZM989 68Q1044 68 1084 92Q1124 117 1142 162L1142 236L994 236Q872 236 872 154Q872 114 903 91Q934 68 989 68ZM1610 669Q1524 669 1524 576L1524 530L1678 530L1678 451L1526 451L1526 0L1430 0L1430 451L1340 451L1340 530L1430 530L1430 577Q1430 656 1476 702Q1522 748 1605 748Q1637 748 1665 740Q1693 732 1713 717L1684 644Q1651 669 1610 669ZM2037 100L2067 31Q2046 13 2015 3Q1984 -6 1951 -6Q1871 -6 1827 37Q1783 80 1783 160L1783 451L1693 451L1693 530L1783 530L1783 646L1879 646L1879 530L2031 530L2031 451L1879 451L1879 164Q1879 121 1900 98Q1922 75 1962 75Q2006 75 2037 100ZM2183 0L2183 530L2279 530L2279 0L2183 0ZM2231 632Q2203 632 2184 650Q2166 668 2166 694Q2166 720 2184 738Q2203 757 2231 757Q2259 757 2277 739Q2296 722 2296 696Q2296 669 2277 650Q2259 632 2231 632ZM2745 535Q2846 535 2905 476Q2965 418 2965 305L2965 0L2869 0L2869 294Q2869 371 2832 410Q2795 449 2726 449Q2648 449 2603 403Q2558 358 2558 273L2558 0L2462 0L2462 530L2554 530L2554 450Q2583 491 2632 513Q2682 535 2745 535ZM3559 530L3650 530L3650 72Q3650 -67 3581 -134Q3512 -200 3375 -200Q3300 -200 3232 -180Q3164 -159 3122 -121L3168 -47Q3205 -79 3259 -98Q3314 -116 3372 -116Q3465 -116 3509 -72Q3554 -28 3554 62L3554 104Q3520 63 3470 42Q3421 22 3363 22Q3287 22 3225 54Q3164 87 3129 145Q3094 204 3094 279Q3094 354 3129 412Q3164 471 3225 503Q3287 535 3363 535Q3423 535 3474 513Q3526 491 3559 448L3559 530ZM3374 106Q3426 106 3467 128Q3509 150 3532 189Q3556 229 3556 279Q3556 356 3505 403Q3454 451 3374 451Q3293 451 3242 403Q3191 356 3191 279Q3191 229 3214 189Q3238 150 3279 128Q3321 106 3374 106Z" fill="#081c4f" style=""></path></g></g><g transform="matrix(1,0,0,1,6.144,1287.168)"><g transform="matrix(1.024,0,0,-1.024,0,0)"><path d="M395 -8Q255 -8 177 72Q99 152 99 302L99 700L199 700L199 306Q199 81 396 81Q492 81 543 136Q594 192 594 306L594 700L691 700L691 302Q691 151 613 71Q535 -8 395 -8ZM1165 535Q1266 535 1325 476Q1385 418 1385 305L1385 0L1289 0L1289 294Q1289 371 1252 410Q1215 449 1146 449Q1068 449 1023 403Q978 358 978 273L978 0L882 0L882 530L974 530L974 450Q1003 491 1052 513Q1102 535 1165 535ZM1563 0L1563 530L1659 530L1659 0L1563 0ZM1611 632Q1583 632 1564 650Q1546 668 1546 694Q1546 720 1564 738Q1583 757 1611 757Q1639 757 1657 739Q1676 722 1676 696Q1676 669 1657 650Q1639 632 1611 632ZM2250 530L2342 530L2342 -194L2246 -194L2246 80Q2213 38 2165 16Q2118 -6 2061 -6Q1984 -6 1923 28Q1862 62 1827 123Q1793 185 1793 265Q1793 345 1827 406Q1862 467 1923 501Q1984 535 2061 535Q2120 535 2169 512Q2218 490 2250 446L2250 530ZM2069 78Q2119 78 2160 101Q2201 125 2224 167Q2247 210 2247 265Q2247 320 2223 362Q2200 404 2159 427Q2119 451 2069 451Q2018 451 1977 428Q1937 405 1913 362Q1890 320 1890 265Q1890 210 1913 167Q1937 125 1977 101Q2018 78 2069 78ZM2922 530L3018 530L3018 0L2927 0L2927 80Q2898 39 2850 16Q2803 -6 2747 -6Q2641 -6 2580 52Q2519 111 2519 225L2519 530L2615 530L2615 236Q2615 159 2652 119Q2689 80 2758 80Q2834 80 2878 126Q2922 172 2922 256L2922 530ZM3680 262Q3680 251 3678 233L3248 233Q3257 163 3309 120Q3362 78 3440 78Q3535 78 3593 142L3646 80Q3610 38 3556 16Q3503 -6 3437 -6Q3353 -6 3288 28Q3223 63 3187 125Q3152 187 3152 265Q3152 342 3186 404Q3221 466 3281 500Q3342 535 3418 535Q3494 535 3553 500Q3613 466 3646 404Q3680 342 3680 262ZM3418 454Q3349 454 3302 412Q3256 370 3248 302L3588 302Q3580 369 3533 411Q3487 454 3418 454Z" fill="#081c4f" style=""></path></g></g></g></svg>